#!OML:ASF E:\Mandelcareful walks\Project 1\Capture day 1\Session 1\Subject1.ASF
:FULLY-SPECIFIED
:DEGREES
62
root 11.6812 16.8457 -4.2495 -61.618 -83.1539 62.6918
lowerback -3.01191 -0.362963 -0.354266
upperback 3.26771 -0.571472 1.59229
thorax 5.08792 -0.342819 1.80408
lowerneck -20.4406 0.454485 -3.55633
upperneck 32.387 2.38302 -2.97678
head 14.6423 -0.11562 -0.23885
rclavicle 0 -4.77083e-015
rhumerus -28.9309 -7.76302 -80.4398
rradius 26.8265
rwrist -10.5096
rhand -11.507 -31.5384
rfingers 7.12502
rthumb 14.532 -61.0094
lclavicle 0 -4.77083e-015
lhumerus -30.462 15.0172 84.3414
lradius 24.5445
lwrist 3.43999
lhand -19.775 -14.4256
lfingers 7.12502
lthumb 6.55701 15.4528
rfemur -3.24163 -10.4558 18.1431
rtibia 18.9346
rfoot -22.2582 -17.4808
rtoes 16.2504
lfemur -10.7654 -1.96401 -10.4379
ltibia 23.3047
lfoot -5.54374 15.0175
ltoes -5.06047
63
root 11.6811 16.822 -4.25635 -61.03 -83.211 62.0727
lowerback -3.12482 -0.310718 -0.13976
upperback 3.33093 -0.516818 1.60558
thorax 5.21475 -0.309337 1.70117
lowerneck -20.5653 0.457866 -3.53545
upperneck 32.3767 2.43745 -3.10047
head 14.6693 -0.107393 -0.283008
rclavicle 6.75868e-015 1.74931e-014
rhumerus -28.9568 -7.92281 -80.3533
rradius 26.7499
rwrist -10.3709
rhand -11.4498 -31.5802
rfingers 7.12502
rthumb 14.5872 -61.0473
lclavicle 6.75868e-015 1.74931e-014
lhumerus -30.2154 14.5769 84.6521
lradius 24.3413
lwrist 4.70366
lhand -20.5043 -16.1032
lfingers 7.12502
lthumb 5.85299 13.796
rfemur -3.28167 -10.7158 18.2221
rtibia 19.0627
rfoot -22.2766 -17.248
rtoes 16.0794
lfemur -10.6361 -1.45032 -10.4456
ltibia 23.893
lfoot -7.7104 14.2887
ltoes 1.2748
64
root 11.6834 16.8327 -4.2742 -60.082 -83.4465 61.146
lowerback -3.12277 -0.336495 0.138507
upperback 3.30982 -0.573127 1.71394
thorax 5.19176 -0.329486 1.65295
lowerneck -20.5595 0.57808 -3.53909
upperneck 32.2719 2.63204 -3.13812
head 14.6215 -0.0258443 -0.260529
rclavicle -5.36719e-015 3.02153e-014
rhumerus -28.928 -7.67816 -80.3365
rradius 26.6531
rwrist -10.5186
rhand -11.3269 -31.8036
rfingers 7.12502
rthumb 14.7055 -61.262
lclavicle -5.36719e-015 3.02153e-014
lhumerus -30.2177 14.5302 84.7626
lradius 24.5037
lwrist 4.9812
lhand -20.634 -15.7664
lfingers 7.12502
lthumb 5.72774 14.1362
rfemur -3.38627 -10.6767 18.5836
rtibia 19.2001
rfoot -22.3834 -17.2027
rtoes 16.1109
lfemur -10.8278 0.620982 -10.5381
ltibia 24.533
lfoot -7.08933 13.192
ltoes -5.47453
65
root 11.6841 16.8272 -4.28328 -60.3269 -83.4874 61.4177
lowerback -3.14632 -0.396379 0.133111
upperback 3.27416 -0.655621 1.77551
thorax 5.17123 -0.37175 1.71344
lowerneck -20.485 0.716188 -3.55265
upperneck 32.1466 2.83597 -3.13734
head 14.548 0.0651694 -0.218952
rclavicle -9.93923e-016 -9.54166e-015
rhumerus -28.8724 -7.4946 -80.2799
rradius 26.4768
rwrist -10.3903
rhand -11.1427 -32.0228
rfingers 7.12502
rthumb 14.883 -61.4682
lclavicle -9.93923e-016 -9.54166e-015
lhumerus -30.3387 14.8281 84.7311
lradius 24.8923
lwrist 4.10964
lhand -20.0121 -14.1203
lfingers 7.12502
lthumb 6.32812 15.7652
rfemur -3.58248 -10.957 18.6007
rtibia 19.5114
rfoot -22.4277 -16.8617
rtoes 16.2682
lfemur -11.075 1.20558 -10.6153
ltibia 25.1755
lfoot -8.38206 12.2077
ltoes -3.72456
66
root 11.6857 16.82 -4.28643 -60.8974 -83.3714 62.0272
lowerback -3.19331 -0.438693 -0.016489
upperback 3.23174 -0.703558 1.79444
thorax 5.1573 -0.400873 1.81321
lowerneck -20.4337 0.780797 -3.55734
upperneck 32.0735 2.94303 -3.17791
head 14.5048 0.107478 -0.214508
rclavicle 6.16232e-015 1.43125e-014
rhumerus -28.7887 -7.63899 -80.1136
rradius 26.0949
rwrist -9.91857
rhand -11.1461 -31.7813
rfingers 7.12502
rthumb 14.8797 -61.2269
lclavicle 6.16232e-015 1.43125e-014
lhumerus -30.4076 14.9741 84.7904
lradius 25.1593
lwrist 3.44857
lhand -19.4657 -12.8702
lfingers 7.12502
lthumb 6.8556 16.9988
rfemur -3.73432 -11.5654 18.3903
rtibia 19.6854
rfoot -22.2929 -16.3753
rtoes 16.2402
lfemur -11.3808 1.70427 -10.8976
ltibia 25.9239
lfoot -9.57595 11.1966
ltoes -1.44711
67
root 11.6873 16.8118 -4.29135 -61.0746 -83.3271 62.1869
lowerback -3.18077 -0.421989 -0.106027
upperback 3.19441 -0.675273 1.80544
thorax 5.1114 -0.389725 1.87715
lowerneck -20.4012 0.800012 -3.33955
upperneck 31.9839 2.94794 -3.34697
head 14.4644 0.116638 -0.318924
rclavicle -4.37326e-015 -1.27222e-014
rhumerus -28.7511 -7.92289 -79.933
rradius 25.7566
rwrist -9.64391
rhand -11.3044 -31.5416
rfingers 7.12502
rthumb 14.7272 -60.9984
lclavicle -4.37326e-015 -1.27222e-014
lhumerus -30.4645 14.0572 85.3104
lradius 25.0508
lwrist 5.81328
lhand -20.5844 -14.8648
lfingers 7.12502
lthumb 5.7756 15.0365
rfemur -3.88379 -12.0647 18.289
rtibia 20.0116
rfoot -22.3413 -15.9381
rtoes 16.3542
lfemur -11.4601 2.7698 -11.2083
ltibia 26.5101
lfoot -9.87273 10.1992
ltoes -2.64285
68
root 11.6851 16.8074 -4.29793 -61.628 -83.3595 62.7009
lowerback -3.17273 -0.394809 -0.160882
upperback 3.16212 -0.635183 1.81526
thorax 5.07241 -0.371479 1.92121
lowerneck -20.3864 0.844436 -3.15258
upperneck 31.9186 2.97499 -3.43386
head 14.4361 0.142345 -0.380535
rclavicle 4.96962e-015 1.11319e-014
rhumerus -28.7973 -8.2245 -79.7547
rradius 25.5728
rwrist -9.34511
rhand -11.3649 -31.5732
rfingers 7.12502
rthumb 14.6689 -61.0343
lclavicle 4.96962e-015 1.11319e-014
lhumerus -30.5027 14.3457 85.147
lradius 25.3056
lwrist 4.19704
lhand -19.7814 -13.247
lfingers 7.12502
lthumb 6.55082 16.6317
rfemur -3.95781 -12.2963 18.2733
rtibia 20.2569
rfoot -22.3436 -15.6822
rtoes 16.5526
lfemur -11.4652 3.74802 -11.4548
ltibia 27.1426
lfoot -10.0675 9.33822
ltoes -4.68523
69
root 11.6827 16.8055 -4.30145 -62.4536 -83.485 63.5019
lowerback -3.15907 -0.385036 -0.116135
upperback 3.13203 -0.625426 1.84547
thorax 5.0327 -0.365303 1.92815
lowerneck -20.432 0.878203 -3.14127
upperneck 31.9363 3.0207 -3.42285
head 14.4541 0.163621 -0.369883
rclavicle 5.96354e-016 -2.38542e-014
rhumerus -28.8277 -8.53443 -79.5774
rradius 25.3628
rwrist -8.84354
rhand -11.3717 -31.8889
rfingers 7.12502
rthumb 14.6624 -61.3505
lclavicle 5.96354e-016 -2.38542e-014
lhumerus -30.4791 14.6096 85.0973
lradius 25.3151
lwrist 3.44204
lhand -19.408 -12.9627
lfingers 7.12502
lthumb 6.91129 16.9045
rfemur -4.01944 -12.3356 18.3532
rtibia 20.4148
rfoot -22.2765 -15.6329
rtoes 16.482
lfemur -11.4487 4.21564 -11.5468
ltibia 27.7892
lfoot -10.3452 8.90188
ltoes -4.93843
70
root 11.6847 16.7989 -4.30253 -62.8955 -83.787 63.9125
lowerback -3.10382 -0.375914 0.0648036
upperback 3.12902 -0.630579 1.97127
thorax 4.99795 -0.364678 1.95679
lowerneck -20.506 0.917349 -3.13286
upperneck 31.9358 3.11408 -3.5189
head 14.4742 0.189274 -0.393665
rclavicle -2.5842e-015 1.74931e-014
rhumerus -28.6893 -8.92388 -79.2978
rradius 24.9864
rwrist -8.21027
rhand -11.4746 -31.7499
rfingers 7.12502
rthumb 14.5633 -61.2186
lclavicle -2.5842e-015 1.74931e-014
lhumerus -30.4225 14.4999 85.3405
lradius 25.3029
lwrist 3.92551
lhand -19.6315 -13.3625
lfingers 7.12502
lthumb 6.69556 16.5116
rfemur -4.06958 -11.8357 18.6961
rtibia 20.5403
rfoot -22.4642 -15.9665
rtoes 16.3942
lfemur -11.3631 4.2895 -11.3842
ltibia 28.2973
lfoot -10.5793 8.71339
ltoes -4.21454
71
root 11.6867 16.7919 -4.30053 -63.5663 -84.0497 64.5759
lowerback -3.15291 -0.396626 0.203105
upperback 3.16703 -0.675438 2.09019
thorax 5.06747 -0.385914 1.999
lowerneck -20.5588 1.03369 -2.99166
upperneck 31.8618 3.31557 -3.74519
head 14.4632 0.261805 -0.472768
rclavicle 3.97569e-016 7.95139e-015
rhumerus -28.4318 -9.41734 -79.0078
rradius 24.5468
rwrist -7.51417
rhand -11.6778 -30.9308
rfingers 7.12502
rthumb 14.3675 -60.4136
lclavicle 3.97569e-016 7.95139e-015
lhumerus -30.3453 14.4465 85.6108
lradius 25.4489
lwrist 4.32899
lhand -19.7851 -13.1189
lfingers 7.12502
lthumb 6.54732 16.7599
rfemur -4.11627 -11.0211 19.0291
rtibia 20.6242
rfoot -22.7489 -16.5684
rtoes 16.0295
lfemur -11.246 4.16821 -11.2791
ltibia 28.6497
lfoot -10.7252 8.65046
ltoes -4.07274
72
root 11.6785 16.7878 -4.29234 -65.2466 -84.102 66.2402
lowerback -3.34958 -0.425522 0.216535
upperback 3.22896 -0.717887 2.06308
thorax 5.24554 -0.406854 1.95932
lowerneck -20.6742 1.16544 -2.82933
upperneck 31.9276 3.48872 -3.83045
head 14.525 0.339014 -0.504847
rclavicle -1.05356e-014 1.59028e-015
rhumerus -28.2495 -9.83286 -78.8898
rradius 24.2597
rwrist -7.11296
rhand -11.6586 -30.8014
rfingers 7.12502
rthumb 14.386 -60.2829
lclavicle -1.05356e-014 1.59028e-015
lhumerus -30.2235 14.556 85.6356
lradius 25.595
lwrist 3.80411
lhand -19.3406 -12.0851
lfingers 7.12502
lthumb 6.97642 17.7799
rfemur -4.09882 -10.698 19.0031
rtibia 20.6765
rfoot -22.8167 -16.7755
rtoes 15.3589
lfemur -10.9869 3.76908 -11.4608
ltibia 28.8661
lfoot -10.9427 8.80633
ltoes -4.08193
